<svg xmlns="http://www.w3.org/2000/svg" viewBox="0 0 617.25 213.85"><defs><style>.cls-1{fill:#b9116c;}.cls-2{fill:#fdcc0e;}.cls-3{fill:#e7364a;}.cls-4{fill:#1c9ea1;}.cls-5{fill:#595858;}.cls-6{fill:#585757;}.cls-7{fill:#575656;}</style></defs><title>sea-logo</title><g id="Layer_2" data-name="Layer 2"><g id="Layer_1-2" data-name="Layer 1"><path class="cls-1" d="M72.27,59.46c3.84-19.18,7.34-38.21,12-56.89C139-10.17,196.63,25.87,209,79.63,164,69.11,119.1,59.08,72.27,59.46Z"/><path class="cls-2" d="M140.43,154.64c-3.79,19-7.3,38-11.89,56.61-51,12.15-110.2-19-124.9-76.71C48.68,145,93.69,155.21,140.43,154.64Z"/><path class="cls-3" d="M78.53,3.91c-10.45,44.92-20.45,89.6-20,136-18.82-3.69-37.73-7.23-56.28-11.8C-9.74,70.39,27.3,17,78.53,3.91Z"/><path class="cls-4" d="M154.08,74.26c19,3.73,37.77,7.25,56.25,11.78,11.28,48.57-17,107.77-76.07,124C144.58,165.3,154.65,120.73,154.08,74.26Z"/><path class="cls-5" d="M474.61,173.25q3.39-10.92,6.77-21.83c1.36-4.4,1.34-4.41,6-4.41l8,0a2.7,2.7,0,0,1,.48.09c1.34.67,1.5,1.86,1.49,3.17q0,27.24,0,54.47a3.15,3.15,0,0,1-1.47,3.15h-8.14c-1.46-.81-1.32-2.11-1.32-3.36,0-11,0-22-.38-33.08-.77,2.44-1.53,4.89-2.3,7.33-1.11,3.58-2.27,7.13-3.31,10.72a3.78,3.78,0,0,1-4.17,3.09c-7.27-.12-6.69.88-8.89-6.42-1.48-4.9-3.06-9.78-5-14.65v32.27c0,3.8-.4,4.18-4.08,4.21-6.81.06-6.81.49-6.79-6.83.06-16.66,0-33.31,0-50,0-3.8.4-4.21,4.08-4.21,2.33,0,4.67.12,7,0,2.48-.15,3.74.76,4.45,3.24,2.23,7.73,4.71,15.39,7.1,23.08Z"/><path class="cls-6" d="M292.09,97.73c0,5.79-.06,10.91,0,16,.09,6.82.27,13.64.43,20.46A2.78,2.78,0,0,1,291,137h-7.08a2.38,2.38,0,0,1-2.62-2.41,22.93,22.93,0,0,1-.09-2.49q0-25.61,0-51.22c0-4.53.35-4.88,4.75-4.88h6.74c3.45,0,4.17.52,5.25,3.76q5.25,15.7,10.48,31.42a4.66,4.66,0,0,0,1.12,2c0-3.3.05-6.6,0-9.9-.16-8-.39-16-.53-24-.06-2.85.47-3.32,3.34-3.33,1.66,0,3.33,0,5,0,1.94,0,2.94.83,2.94,2.84q0,27.36,0,54.72a3.48,3.48,0,0,1-1.65,3.44c-3.05,0-6.37,0-9.7,0-2.11,0-2.93-1.51-3.57-3.26q-5.91-16.29-11.87-32.55C293.06,100.22,292.68,99.26,292.09,97.73Z"/><path class="cls-6" d="M425,109.49l8.83,26c-.15.34-.19.66-.36.77-2.35,1.55-5,.58-7.47.71-3.49.18-3.87-.32-5.16-4.37-2.06-6.39-4.16-12.77-6.24-19.13a3.65,3.65,0,0,0-4.11.16c-.57,1.7-.25,3.46-.27,5.18-.05,5.16,0,10.33,0,15.49,0,1.87-.77,2.77-2.69,2.73-2.16-.06-4.33,0-6.49,0a2.59,2.59,0,0,1-2.61-1.51v-22q0-16.61,0-33.22c0-3.23.54-3.77,3.77-3.78,5.41,0,10.83,0,16.24,0,7.85,0,12.9,5.16,12.9,13,0,2.08-.13,4.17,0,6.24C431.84,101.51,430.39,106.35,425,109.49Zm-15.35-7.75a12.45,12.45,0,0,0,6.25.41c2.67-.36,4.05-2.05,4.1-4.76,0-2.08-.06-4.16,0-6.23s-.11-4.33-2.29-5.36a10.71,10.71,0,0,0-8.08-.26Z"/><path class="cls-6" d="M516.85,135.5c-.44,1.13-.94,1.5-1.7,1.5-2.58,0-5.16.09-7.74,0-1.85-.08-2.62-1.42-3.14-3.06-2.07-6.49-4.2-12.95-6.31-19.43-.13-.38-.31-.75-.46-1.12a3.66,3.66,0,0,0-4.28.57v10.48c0,3.25,0,6.49,0,9.74,0,2-.76,2.94-2.81,2.87s-4.16,0-6.24,0a2.72,2.72,0,0,1-2.75-1.47V80.43c0-3.41.51-3.91,3.89-3.92,5.33,0,10.66,0,16,0,8,0,13,5.11,13,13.13,0,2.33-.14,4.67,0,7,.41,5.46-1.42,9.79-6.35,12.88C511,118.26,514,127,516.85,135.5Zm-24.12-50v16.18a13.49,13.49,0,0,0,6.37.49A4.4,4.4,0,0,0,503,97.45c0-2.57,0-5.15,0-7.72a3.94,3.94,0,0,0-1.82-3.62C498.49,84.43,495.6,84.81,492.73,85.46Z"/><path class="cls-6" d="M370.16,178q0-13.12,0-26.24c0-3.57.68-4.23,4.2-4.24h16c8.79,0,15.74,6.36,16,15.17.28,10.15.31,20.32,0,30.47a15.93,15.93,0,0,1-16.18,15.36c-5.5,0-11,0-16.49,0-2.83,0-3.52-.66-3.53-3.54Q370.14,191.47,370.16,178Zm10.36,20c2.67,0,5.15.11,7.61,0a7.37,7.37,0,0,0,7.21-7.45c.08-8.74,0-17.48,0-26.21a6,6,0,0,0-3.53-5.87c-3.62-1.63-7.41-.9-11.3-.62Z"/><path class="cls-5" d="M320,35.59c0,4.83.05,9.66,0,14.49A16.84,16.84,0,0,1,302.83,67c-9.91,0-16.31-4.34-18.55-12.58a20.67,20.67,0,0,1-.62-5.43c0-8.91.16-17.82,0-26.72A17,17,0,0,1,301.4,4.4c5.2.27,9.87,1.08,13.7,4.82a15.55,15.55,0,0,1,4.84,11.39c0,5,0,10,0,15Zm-11.51-.23c0-4.74,0-9.48,0-14.22a6.47,6.47,0,0,0-6.67-6.56c-3.82-.06-7,2.54-7,6.24q-.19,14.46,0,28.93a6.86,6.86,0,1,0,13.72-.42C308.55,44.67,308.52,40,308.52,35.36Z"/><path class="cls-6" d="M280.19,207.7c-3.53.67-7.07.15-10.85.31-1.79-5.25-2-10.7-3.42-15.91H255.08c-1.4,5.2-1.62,10.63-3.37,15.85-3.91-.08-7.57.51-11.29-.4-.06-4,1.06-7.34,1.74-10.73,3.05-15.23,6.2-30.44,9.31-45.65.61-3,1.34-3.65,4.31-3.66,3.25,0,6.5,0,9.74,0,2.29,0,3.49,1.07,3.94,3.3q5.42,26.74,10.88,53.48A6.16,6.16,0,0,1,280.19,207.7Zm-19.38-47.54-.7,0q-1.8,10.81-3.62,21.69h8.06C263.29,174.52,262.05,167.34,260.81,160.16Z"/><path class="cls-6" d="M364.08,207.77c-3.42.5-6.95.17-10.76.2-1.76-5.21-2-10.65-3.39-15.87H339.08c-1.4,5.2-1.62,10.63-3.38,15.87-3.89-.17-7.57.61-11.28-.55-.06-3.87,1.06-7.21,1.74-10.59,3-15.23,6.2-30.44,9.31-45.66.61-3,1.34-3.65,4.31-3.66,3.25,0,6.49,0,9.74,0,2.29,0,3.49,1.06,3.94,3.3q5.42,26.74,10.88,53.48A5.38,5.38,0,0,1,364.08,207.77Zm-15.5-25.83c-1.3-7.44-2.55-14.62-3.8-21.8l-.67.05c-1.21,7.21-2.41,14.43-3.63,21.75Z"/><path class="cls-6" d="M414.46,50.58H403.64c-1.49,5.16-1.61,10.69-3.46,15.92-3.94-.19-7.62.54-11.35-.53.31-4.73,1.49-8.81,2.31-12.94,2.88-14.35,5.87-28.67,8.8-43,.73-3.56,1.21-4,4.75-4,3.25,0,6.5,0,9.74,0a3.15,3.15,0,0,1,3.47,2.85q5.5,27.12,11,54.25a3.52,3.52,0,0,1-.48,3.18c-3.19.55-6.78.09-10.57.21C416.11,61.26,415.85,55.91,414.46,50.58Zm-5.13-31.94-.69,0c-1.21,7.22-2.42,14.43-3.63,21.72h8.06C411.8,33,410.57,25.83,409.33,18.64Z"/><path class="cls-6" d="M553.56,118a3.58,3.58,0,0,1,1.93,3.29c.21,3.89,2.65,6.16,6.4,6.2,3.54,0,5.92-2.26,6.28-6,0-.33.08-.66.12-1,.69-7.26-1.51-9.94-8.76-10.62l-2.23-.24c-7.83-.82-11-3.68-12.15-11.35a41.89,41.89,0,0,1,0-11.46,13.11,13.11,0,0,1,11.23-11.16,29.44,29.44,0,0,1,9.46,0,15.18,15.18,0,0,1,12.28,14.94c0,2.14-1,3.26-3.13,3.35-1,0-2,0-3,0-4.19,0-4.19,0-4.89-4.07a6,6,0,0,0-6.15-4.77c-3.36.14-5.71,2.16-6,5.18,0,.08,0,.17,0,.25-.63,8.06.62,9.48,8.73,9.94,10.15.57,15.29,6,15.33,16.13a34.58,34.58,0,0,1-.65,8.44,17.28,17.28,0,0,1-16.9,13.14c-9.33.12-16.08-6.37-17.28-15-.54-3.9.56-5.2,4.5-5.21Z"/><path class="cls-6" d="M251.05,47.51A3.61,3.61,0,0,1,253,50.87,6,6,0,0,0,259.47,57c3.53,0,5.84-2.28,6.2-6.12,0-.41.13-.82.16-1.23.58-6.95-1.67-9.63-8.62-10.28-.83-.07-1.66-.18-2.48-.27-7.75-.8-10.95-3.74-12.09-11.42a41,41,0,0,1,0-11.45,13.12,13.12,0,0,1,11.29-11.1,30.64,30.64,0,0,1,9.22,0,15.17,15.17,0,0,1,12.44,15,3,3,0,0,1-.22,1.46c-2,3.27-5.27,1.44-8,1.76-1.81.22-2.57-1.08-2.76-2.82-.52-4.72-4.09-7-8.48-5.5a5.86,5.86,0,0,0-.69.28c-4.43,2.4-3,6.61-3,10.26,0,2.31,1.79,3.52,5,4,2.31.32,4.65.4,6.93.84,7,1.35,10.44,4.86,11.67,11.82a30.55,30.55,0,0,1-.25,12.16c-1.87,8.24-9.08,13.25-17,13.31a16.87,16.87,0,0,1-17.22-15c-.52-3.79.6-5.12,4.34-5.14Z"/><path class="cls-6" d="M452.87,111c0,7.65,0,15,0,22.3,0,3.23-.48,3.7-3.79,3.7-1.75,0-3.51-.07-5.25,0-2.25.12-3.2-.88-3.17-3.09.05-4.17,0-8.33,0-12.5q0-20.62,0-41.24c0-3.76.43-4.19,4.11-4.19,4.91,0,9.84.2,14.74,0,10-.47,14.2,4.92,14.67,13.94.16,3.07.14,6.17,0,9.24A12.7,12.7,0,0,1,461.65,111C458.83,111.06,456,111,452.87,111Zm-.35-10.47c1.91,1.68,4.09.91,6.08.92,3.16,0,5.12-2,5.24-5.15.09-2.25.05-4.5,0-6.75a4.47,4.47,0,0,0-2.71-4.42,14.08,14.08,0,0,0-8.62-.15Z"/><path class="cls-7" d="M424.47,157.51v13.42h13.88c2,2.14,2.1,8.22.2,10.58H424.49v15.76c1.72.52,3.54.2,5.34.23,3.91.05,7.82,0,11.74,0,1.75,0,2.64.77,2.65,2.53v.25c0,8.8.5,7.71-7.29,7.73-6.58,0-13.15,0-19.73,0-1.28,0-2.54.07-3.34-1.68V150.73c0-3.5.21-3.71,3.67-3.72,7.83,0,15.66.06,23.48,0,2.39,0,3.25.9,3.24,3.24,0,8.33.27,7.26-7.26,7.29C432.85,157.53,428.71,157.51,424.47,157.51Z"/><path class="cls-7" d="M597.48,86.51v13.4h13.83c2,2.11,2.16,8.17.28,10.59H597.5v15.7c.72.64,1.68.29,2.55.29,4.66,0,9.32.09,14,0,2.19,0,3.22.71,3.22,3,0,8.55.38,7.49-7.29,7.51-6.66,0-13.32,0-20,0-1.22,0-2.34-.06-3.12-1.68V79.76c0-3.53.21-3.74,3.64-3.75,7.83,0,15.65.06,23.48,0,2.36,0,3.28.84,3.27,3.21,0,8.34.29,7.29-7.23,7.32C605.88,86.53,601.74,86.51,597.48,86.51Z"/><path class="cls-7" d="M385,100c1.94,2.28,1.92,8.36,0,10.53H371v16h15.63c3.85,0,4,.21,4.06,4.12.09,7.19-.2,6.38-6.4,6.38-6.91,0-13.82,0-20.73,0-2.35,0-3.27-.84-3.27-3.22q.09-27.35,0-54.7c0-2.21.74-3.17,3-3.15q12.12.12,24.23,0c2.25,0,3.24.85,3.13,3.1-.08,1.49,0,3,0,4.49,0,2.05-1,3-3.09,3-5.48-.07-11,0-16.6,0V100Z"/><path class="cls-7" d="M268.46,99.88c1.87,2.37,1.9,8.28.17,10.59H254.51v16h16c3.4,0,3.7.33,3.74,3.7.07,7.67,0,6.8-6.72,6.8s-13.66,0-20.49,0c-1.21,0-2.35,0-3.16-1.66V79.8c0-3.59.2-3.79,3.85-3.79,7.74,0,15.48.06,23.23,0,2.32,0,3.32.76,3.31,3.17,0,8.36.31,7.34-7.19,7.36-4.14,0-8.29,0-12.56,0V99.88Z"/><path class="cls-6" d="M319.87,188.77a5.49,5.49,0,0,1,.9,3.77A17.16,17.16,0,0,1,303,208.69c-8.82-.15-15.12-5.84-16.78-12.88a14.16,14.16,0,0,1-.41-3c-.21-10.65-.55-21.31.13-31.94.53-8.38,7.53-14.36,15.94-14.41,3.52,0,7,0,10.19,1.75,5.52,3,8.28,7.76,8.62,13.95.14,2.42-.92,3.44-3.43,3.58-1,.06-2,0-3,0-3.71,0-4.27-.52-4.77-4.17a6.37,6.37,0,0,0-5.6-5.52,6.87,6.87,0,0,0-7.36,4.35,10.05,10.05,0,0,0-.48,3.18c0,8.74,0,17.48,0,26.22a8.59,8.59,0,0,0,1.33,5,6.75,6.75,0,0,0,6.88,3,7,7,0,0,0,5.21-5.46c.75-4,1-4.16,5-4.15,1.33,0,2.67,0,4,.09A6.47,6.47,0,0,1,319.87,188.77Z"/><path class="cls-6" d="M361.87,47.29c1.25,1.75.9,3.38.72,5.05a16.64,16.64,0,0,1-16.9,14.75c-9.29-.35-15.23-4.33-17.41-12.6a13.4,13.4,0,0,1-.44-3c-.3-10.48-.56-21,.06-31.44.55-9.33,7.26-15,16.54-15.11,3.45,0,6.8.15,9.9,1.91,5.39,3.06,8,7.77,8.35,13.86.12,2.17-1,3.46-3.24,3.52-1.16,0-2.33,0-3.5,0-3.37-.05-4-.65-4.44-4a6.34,6.34,0,0,0-5.68-5.71A6.85,6.85,0,0,0,338.51,19a10.29,10.29,0,0,0-.46,3.18c0,8.74,0,17.48,0,26.22a8.64,8.64,0,0,0,1.22,4.76,6.8,6.8,0,0,0,6.81,3.22,6.93,6.93,0,0,0,5.4-5.56c.7-3.83,1-4.1,4.79-4.09,1.42,0,2.83,0,4.24.11A5.76,5.76,0,0,1,361.87,47.29Z"/><path class="cls-6" d="M519.47,166.54c1.95-5.59,3.7-10.59,5.43-15.58,1.37-3.94,1.36-3.79,5.44-4,6.8-.33,7.53,1.23,5,7.28-3,7.3-5.74,14.71-8.64,22.05a19.64,19.64,0,0,0-1.4,7.54c.08,6.84,0,13.67,0,20.5,0,3.54-.63,4.16-4.25,4.17-1.42,0-2.84,0-4.25,0-2.66,0-3.4-.78-3.41-3.46,0-7.16-.05-14.33,0-21.5a16.38,16.38,0,0,0-1.15-6.08q-4.92-12.79-9.82-25.61c-1.29-3.38-.26-4.85,3.4-4.84,7.4,0,6.51-.81,9,6.41,1.35,3.94,2.67,7.88,4,11.81C519,165.47,519.08,165.69,519.47,166.54Z"/><path class="cls-7" d="M354.87,77.58v7.17c-2.8,2.6-6.5.44-9.85,1.59v2.6q0,22.13,0,44.24c0,1.39.28,2.91-1.66,3.83-2,0-4.21,0-6.45,0-2,0-2.91-1-3-2.88s0-3.5,0-5.25V86.3c-3-1-6.46.69-9.39-1.15V77.36c.66-1.3,1.72-1.36,2.85-1.35h24.25A3.16,3.16,0,0,1,354.87,77.58Z"/><path class="cls-6" d="M458.61,66.51H436.29c-2.05,0-2.43-1.36-2.43-3,0-4.33,0-8.67,0-13V9.5c0-3.61.4-4,4-4,6.6,0,7-1,7,6.89-.08,14.41,0,28.82,0,43.5h13.7C460.36,58.06,460.33,64.47,458.61,66.51Z"/><path class="cls-5" d="M372.43,6c2.29,0,4.77,0,7.26,0,1.84,0,2.28,1.3,2.27,2.91,0,4.16,0,8.32,0,12.49q0,20.72,0,41.44c0,3.24-.38,3.62-3.55,3.64h-5.81A3.05,3.05,0,0,1,371,63.45Q371,36.24,371,9A3.28,3.28,0,0,1,372.43,6Z"/><path class="cls-5" d="M527,76.52c2.18,0,4.74,0,7.31,0a2.06,2.06,0,0,1,2.1,2,14.76,14.76,0,0,1,0,1.49q0,26.72,0,53.43c0,3.07-.43,3.49-3.43,3.5-2.07,0-4.14,0-5.87,0a2.87,2.87,0,0,1-1.63-3q0-27.33,0-54.67A3,3,0,0,1,527,76.52Z"/></g></g></svg>